<?xml version="1.0" encoding="utf-8"?>
<!-- Generator: Adobe Illustrator 16.0.0, SVG Export Plug-In . SVG Version: 6.00 Build 0)  -->
<!DOCTYPE svg PUBLIC "-//W3C//DTD SVG 1.1//EN" "http://www.w3.org/Graphics/SVG/1.1/DTD/svg11.dtd">
<svg version="1.1" id="Layer_1" xmlns="http://www.w3.org/2000/svg" xmlns:xlink="http://www.w3.org/1999/xlink" x="0px" y="0px"
	 width="1224px" height="792px" viewBox="0 0 1224 792" enable-background="new 0 0 1224 792" xml:space="preserve">
<g>
	<g>
		<path fill="none" stroke="#006CB7" stroke-width="29.0018" stroke-miterlimit="10" d="M909.579,660.587
			c0,24.3-19.743,44.047-44.034,44.047c-24.323,0-44.01-19.746-44.01-44.047c0-24.287,19.687-44.023,44.01-44.023
			C889.834,616.563,909.579,636.3,909.579,660.587z"/>
		<path fill="none" stroke="#006CB7" stroke-width="29.0018" stroke-miterlimit="10" d="M547.828,660.587
			c0,24.3-19.711,44.047-44.023,44.047s-44.036-19.746-44.036-44.047c0-24.287,19.725-44.023,44.036-44.023
			S547.828,636.3,547.828,660.587z"/>
	</g>
	<g>
		<polyline fill="none" stroke="#006CB7" stroke-width="46.403" stroke-miterlimit="10" points="356.642,190.491 988.871,190.491 
			877.271,479.157 424.434,479.157 		"/>
		<path fill="none" stroke="#006CB7" stroke-width="46.403" stroke-miterlimit="10" d="M903.554,589H467.677L334.448,135.592
			c0,0-24.548-99.343-99.319-12.865"/>
	</g>
</g>
</svg>
