<?xml version="1.0" encoding="utf-8"?>
<!-- Generator: Adobe Illustrator 16.0.0, SVG Export Plug-In . SVG Version: 6.00 Build 0)  -->
<!DOCTYPE svg PUBLIC "-//W3C//DTD SVG 1.1//EN" "http://www.w3.org/Graphics/SVG/1.1/DTD/svg11.dtd">
<svg version="1.1" id="Layer_1" xmlns="http://www.w3.org/2000/svg" xmlns:xlink="http://www.w3.org/1999/xlink" x="0px" y="0px"
	 width="1224px" height="792px" viewBox="0 0 1224 792" enable-background="new 0 0 1224 792" xml:space="preserve">
<path fill="#F6A500" d="M870.469,440.999c-1.925-57.408,127-179.499,127-179.499c-169,5-213,120-213,120
	c-26.972,22.381-47.216,10.049-59.575-4.524C686.643,299.848,582.276,244.5,459.5,244.5c-155.191,0-281,88.424-281,197.5
	s125.809,197.5,281,197.5c123.993,0,229.219-56.447,266.521-134.771c12.446-13.981,32.28-24.943,58.448-3.229c0,0,44,115,213,120
	C997.469,621.499,872.394,498.407,870.469,440.999z"/>
</svg>
