<?xml version="1.0" encoding="utf-8"?>
<!-- Generator: Adobe Illustrator 16.0.0, SVG Export Plug-In . SVG Version: 6.00 Build 0)  -->
<!DOCTYPE svg PUBLIC "-//W3C//DTD SVG 1.1//EN" "http://www.w3.org/Graphics/SVG/1.1/DTD/svg11.dtd">
<svg version="1.1" id="Layer_1" xmlns="http://www.w3.org/2000/svg" xmlns:xlink="http://www.w3.org/1999/xlink" x="0px" y="0px"
	 width="1224px" height="792px" viewBox="0 0 1224 792" enable-background="new 0 0 1224 792" xml:space="preserve">
<path fill="none" stroke="#006CB7" stroke-width="54.7905" stroke-miterlimit="10" d="M688.427,252.22
	c0,42.467-34.428,76.91-76.909,76.91c-42.467,0-76.903-34.442-76.903-76.91c0-42.486,34.438-76.914,76.903-76.914
	C653.999,175.306,688.427,209.734,688.427,252.22z"/>
<path fill="none" stroke="#006CB7" stroke-width="54.7905" stroke-miterlimit="10" d="M816.872,252.224
	c0-113.434-91.901-205.376-205.354-205.376c-113.409,0-205.354,91.943-205.354,205.376c0,22.6,3.79,44.286,10.543,64.626h-0.145
	C459.762,462.736,611.518,641.54,611.518,641.54s151.731-178.804,194.944-324.689h-0.12
	C813.087,296.51,816.872,274.824,816.872,252.224z"/>
</svg>
