<?xml version="1.0" encoding="utf-8"?>
<!-- Generator: Adobe Illustrator 16.0.0, SVG Export Plug-In . SVG Version: 6.00 Build 0)  -->
<!DOCTYPE svg PUBLIC "-//W3C//DTD SVG 1.1//EN" "http://www.w3.org/Graphics/SVG/1.1/DTD/svg11.dtd">
<svg version="1.1" id="Layer_1" xmlns="http://www.w3.org/2000/svg" xmlns:xlink="http://www.w3.org/1999/xlink" x="0px" y="0px"
	 width="1224px" height="792px" viewBox="0 0 1224 792" enable-background="new 0 0 1224 792" xml:space="preserve">
<g>
	<path fill="#FFFFFF" stroke="#086DB6" stroke-width="50.7069" stroke-miterlimit="10" d="M429.608,121.409H353.16
		c0,0-15.495-0.532-15.495,16.197V212.8"/>
	<path fill="#FFFFFF" stroke="#086DB6" stroke-width="50.7069" stroke-miterlimit="10" d="M886.661,213.237v-76.44
		c0,0,0.526-15.499-16.193-15.499h-75.201"/>
	<path fill="#FFFFFF" stroke="#086DB6" stroke-width="50.7069" stroke-miterlimit="10" d="M794.391,670.594h76.449
		c0,0,15.491,0.528,15.491-16.2v-75.186"/>
	<path fill="#FFFFFF" stroke="#086DB6" stroke-width="50.7069" stroke-miterlimit="10" d="M337.339,578.763v76.439
		c0,0-0.527,15.5,16.192,15.5h75.202"/>
</g>
<g>
	<rect x="311.984" y="182.978" fill="#006CB7" width="50.707" height="102.821"/>
	<rect x="404.947" y="96.056" fill="#006CB7" width="97.663" height="50.708"/>
	<rect x="722.277" y="95.615" fill="#006CB7" width="101.002" height="50.706"/>
	<rect x="861.309" y="172.414" fill="#006CB7" width="50.707" height="113.83"/>
	<rect x="861.309" y="506.21" fill="#006CB7" width="49.858" height="110.954"/>
	<rect x="721.395" y="645.24" fill="#006CB7" width="101.886" height="50.708"/>
	<rect x="383.04" y="645.678" fill="#006CB7" width="118.687" height="50.707"/>
	<rect x="311.988" y="505.764" fill="#006CB7" width="50.707" height="118.978"/>
</g>
</svg>
